<svg xmlns="http://www.w3.org/2000/svg" width="37.941" height="25.27" viewBox="0 0 37.941 25.27">
  <g id="iconfinder_eye-24_103177" style="mix-blend-mode: difference;isolation: isolate">
    <g id="Groupe_12" data-name="Groupe 12" transform="translate(0 0)">
      <path id="Tracé_45" data-name="Tracé 45" d="M18.959,4C6.424,4-.012,16.635-.012,16.635S4.844,29.27,18.959,29.27c12.782,0,18.97-12.586,18.97-12.586S31.692,4,18.959,4Zm.028,20.531a7.711,7.711,0,0,1-7.9-7.9,7.71,7.71,0,0,1,7.9-7.9,7.71,7.71,0,0,1,7.9,7.9A7.711,7.711,0,0,1,18.988,24.531Zm0-12.635a4.738,4.738,0,1,0,4.738,4.738A4.791,4.791,0,0,0,18.988,11.9Z" transform="translate(0.012 -4)" fill="gray" fill-rule="evenodd"/>
    </g>
  </g>
</svg>
