<svg xmlns="http://www.w3.org/2000/svg" viewBox="0 0 409.75 520.28"><defs><style>.cls-1,.cls-2{fill:none;stroke-miterlimit:10;stroke-width:0.75px;}.cls-1{stroke:#f2eddf;}.cls-2{stroke:#f54f4f;}.cls-3{isolation:isolate;}.cls-4{fill:#f54f4f;}.cls-5{fill:#f2eddf;}</style></defs><g id="Calque_2" data-name="Calque 2"><g id="Calque_1-2" data-name="Calque 1"><path class="cls-1" d="M354.57,225.39s-10.09,8.73-19.36,36.54S330,308.28,330,308.28s2.29,9-.9,12.27-24.46,15-24.46,15-45,1.36-49.08,2.45S233,353,233,353s-5.35,6.81-8.94,7.63-3.87,7.63-7.69,8.18-12,5.18-12,5.18-2.45,7.27,4.09,9.09,11.32-2.95,11.32-2.95,13.5-5.87,15.95-6.14,6.82-.27,6.82-.27,3.81,9,1.36,14.18-5.73,13.9-6.27,15.54-4.36,14.18-5.73,16.08-1.36,8.73-1.36,13.09a5.69,5.69,0,0,0,4.09,5.45l6.41-6.4c1.22-1.23,8.86-.14,10.22-2.05a56.46,56.46,0,0,1,5-5.59c1-.95,4.23-11,4.23-11l11.18-4.36,6.95-7s4.46-13,10.05-18.58c0,0,6.36-1.09,8.9-1.82,0,0,38.36.91,53.81-8.72A50.76,50.76,0,0,0,371.74,348s1.46-17.27,3.28-21.82,10.18-13.08,12.36-22.54,6-30.9,7.45-40.35a173,173,0,0,1,5.09-21.08s9.27-19.45,9.45-36.36-7.09-33.26-7.09-33.26-1.27-2.37-7.09-6.36-19.26-13.09-23.81-14.73-16.54-6.18-16.54-6.18a84,84,0,0,0-8.54-4,10.6,10.6,0,0,1-4-2.36l10.54-15.63s4.91-8.55,4.91-10.73v-6.9s6.36-9.27,6.91-10.91,4.54-19.09,4-20.18,1.28-20.36-.72-23.26S362.66,29,360.11,26.26,343.75,13,338.84,12.08A115.3,115.3,0,0,1,327.21,9L316.3,6.45S310.85,5,311.94,2.09,301.4.27,296.86,3.18l-3.28,2.18S289.4,1.18,285,1.9,272.32,11,272.32,11l-8.18.73-1.28,2.91s-17.08-1.82-21.81,2.91,3.27,10.54,3.27,10.54-8,1.45-8.9,11.81,9.08,20.36,9.08,20.36-2.54,7.64-2.36,11.82-1,5.36-1,5.36-7.54,10.09-8.09,15.91,0,17.08,0,17.08a68.15,68.15,0,0,0-1.45,8.36c0,2,1.27,5.27,0,10.36s-2.91,12.91-2.91,14.18-2,8,5.45,11.09,15.64,5.27,22.18,4.91,23.09-1.64,28.17-2.55,17.64-5.81,19.45-11.45"/><path class="cls-1" d="M329.13,320.55s6.23-6.27,21.91,0"/><path class="cls-1" d="M349.39,219.22s-1.64,6.53,0,12.48"/><path class="cls-1" d="M333.16,268.73s-9.85,18.56-26.53,19.65-27-4.37-27-4.37"/><path class="cls-1" d="M320.16,326.63s-.77,2-17.12,0-23.45-4.17-23.45-4.17"/><path class="cls-1" d="M297.32,335.78s-10.92-1.87-13.37-2.69"/><path class="cls-1" d="M67.74,308.39s-6.1,36.52-6.1,39.06-1.45,10.91,0,12.36-2.74,8.36-.64,13.82,3.65,10.18,3.65,10.18S57,390,60.4,392.53a113.63,113.63,0,0,1,10.15,9.27c2,2,3.09,11.45,3.09,11.45L84.36,424a5.21,5.21,0,0,0,2.37-6.36,34.54,34.54,0,0,1-1.46-9.46s25.81,11.64,26.91,11.27,5.81-.36,6.54-2.54,9.81-2.18,10.18-2.18,4-11.27-8.36-15.64-25.95-13.45-25.95-13.45l-5-5c.18.18,13.15.18,13.15.18s19.27,1.94,21.45.84,5.82-6.18,2.18-9.81-21.08-6.91-21.08-6.91l-13.09-4.72,5.09-5.09s.73,5.09,11.27,5.09,17.91.36,21.13-5.46c0,0,1.41-5.81-3.68-6.9s-16.72-6.19-19.63-8.37-8.08-8.36-11.68-8.72-23.59,12.36-25.4,16"/><path class="cls-1" d="M79.09,187.86l4.16-9.54,2-4.64L102,157l8.36-10.91V129.33S80.18,99.15,74.73,82.07s-5.45-32.72-4-39.27S82.36,11.17,121.26,7.54s57.81,1.82,60,2.18,28.35,13.09,30.54,45.81v16L207.24,67l-3.36,11.09-3,6.54,10.91,12.47s6.54,6.8,0,10.07c0,0-4.37.91-3.91,3.91s3,5.72,1.72,6.81-13.08,6.73-13.08,6.73"/><path class="cls-1" d="M83.25,178.32s-4.52.81-11.06,4.81-25.45,18.18-26.54,19.63l9.45,2.55L75.82,248.2s26.18,15.27,47.63,60.35c6.4,16.44,11.63,37.81,11.63,37.81l31.63,48"/><line class="cls-1" x1="139.8" y1="419.43" x2="128.9" y2="414.71"/><path class="cls-1" d="M81.27,337.26s-20-40.21-25.08-58.63-24.09-49.09-6-74.66"/><path class="cls-1" d="M216.33,368.81s-2.73-18.09,0-23.54,7.92-18.42,7.69-26.11-3-37.15,0-59.32a228.28,228.28,0,0,1,8.12-37.45s12.73-37.62,12.73-44.07-.63-16.64,2.77-19.73"/><path class="cls-1" d="M261.57,159a30.49,30.49,0,0,1,11.28,23.78c.36,40.7,2.2,60.71,0,74.15s-7.61,38.9-9.08,44-1.45,29.45-1.45,29.45v7"/><path class="cls-1" d="M203.88,142.41A139,139,0,0,1,228.54,145"/><path class="cls-1" d="M273.27,250.39s6.32,10.81,6.32,41.44-7.15,16.81-11.85,45.49"/><path class="cls-1" d="M279.59,336.45c-.55-2.45-4-21.4-4-21.4"/><path class="cls-1" d="M271.68,263.7s5.47,21.59,2.23,35.4c0,0-5.45,16.81-5.23-2.18"/><path class="cls-1" d="M142.84,220c-5.34-1.51-11.8-2.16-18.85-2.69C109.82,216.2,110.34,204,110.34,204s0-4.1-.69-19c-3.24-37.06.69-38.89.69-38.89s-6.88,31.25,22.57,62a111.54,111.54,0,0,1,9.93,12c19.52,27.29,19.52,54.38,19.52,54.38"/><path class="cls-1" d="M155.43,296.34c-.17-.79,3.1-18.51,13.64-34.87s11.45-37.26,1.27-46.35-10.91-8.72-12.54-15.81S164,186.77,171,177.4s5.36-29.53,5.36-29.53"/><path class="cls-1" d="M200.44,122.73c2.16,1.38,5,3.54,4.62,5.31-.56,2.92-2.72,4.56-2.36,6.36s3.11,6.76-1.18,10.56-30.63,2.92-30.63,2.92"/><path class="cls-1" d="M237.29,127.61a13.3,13.3,0,0,0,1.79.53,42.67,42.67,0,0,1,4.36,1.71l14.21,7.43"/><path class="cls-1" d="M191.81,451.42c-3,0-7.11,1.37-7.11,0s0-6.27,1.91-8.72,17.27-9.27,17.27-9.27l2.63-9.45s1.1-12.36,0-16.86-3.81-5.86-4.63-6.14-6,.82-9.82,2.18-7.63,3.82-12.13,4-4.28-5.5-3.3-7.95l2.79-2.9a8,8,0,0,1,2-1.92l15.29-7.27s6.78.77,16.37-3.72"/><path class="cls-1" d="M191.81,451.42s-4.56,6-1.65,8.91,5.18.64,5.18.64.27,4.09,3.18,4.27,13.39-4.36,16.6-5.09a32.74,32.74,0,0,0,9.07-3.95,9.06,9.06,0,0,0,3.77-4.78c.46,3.37-2.24,8.81-2.6,9.36s-6.3,4.64-6.12,8.64l.18,4s5.91-2,8.77-4.55,5.41-5.27,5.41-5.27c3.45-2.18,6.45-20.35,6.45-20.35l1-11.59"/><path class="cls-1" d="M176.79,399a15,15,0,0,0-.79-2.56l-3-2.89s-6,.82-9.57,1.74-2.63,3.9-2.63,3.9,2.4,10.2,11,8.63c2.53-.46,3.94-1.61,4.66-3"/><path class="cls-1" d="M164.4,406.75c3,4.51,9.13,5.9,12.76,9.94a12.46,12.46,0,0,1,1.45,14.19,3.56,3.56,0,0,1-2.57,2,4.63,4.63,0,0,1-2.73-1.17c-4.6-3.15-10.31-4.08-15.78-5.19a8.17,8.17,0,0,1-3.77-1.46,8.25,8.25,0,0,1-2.13-3.71q-2.76-7.77-5.08-15.68a5.44,5.44,0,0,1-.32-2.14,4.71,4.71,0,0,1,.84-2A18.34,18.34,0,0,1,160,393.4"/><path class="cls-1" d="M164.23,439.87c2.49,1.61,5.51,2.46,7.61,4.56a7.08,7.08,0,0,1,2.1,5.05,5.26,5.26,0,0,1-2.82,4.53,9,9,0,0,1-4.6.52l-5.34-.29a9.28,9.28,0,0,1,4.62,5.31c.66,2.33-.19,5.15-2.33,6.23a8.73,8.73,0,0,1-4.59.53,22.14,22.14,0,0,1-5.87-.92,24.06,24.06,0,0,1-4.26-2.17c-1.94-1.14-3.87-2.32-5.81-3.51-3.31-2-7-4.55-7.25-8.39a11.53,11.53,0,0,1,.66-3.87,61.09,61.09,0,0,1,2.62-7,5.57,5.57,0,0,0,.66-2c0-1.31-.85-2.46-1.25-3.71-.85-2.62.59-5.35,1.51-7.94s1.41-5.57,2.36-8.26c.82-2.46,3.87-4.89,6.3-6.36"/><path class="cls-1" d="M164.21,439.87c0,.23-5-4.53-5-4.3-.66.23-1.15-.6-1.32-1.27a18.47,18.47,0,0,1-.41-6.5"/><path class="cls-1" d="M141.23,458.68c.41,2.74-.6,6.41-.81,9.17-.23,3,.49,6.19-.5,9.06,1.29.64,2.82.25,4.21-.14a21.78,21.78,0,0,0,4.45-1.64,7.13,7.13,0,0,0,3.25-3.35c.82-1.95.42-4.24,1.24-6.19"/><path class="cls-1" d="M70.55,401.8s-4,16.55,0,26,15.45,13,15.72,28.26,6.55,18.81,5.73,24.81,25.63-7.5,31.35-11.79,14.58-13.14,14.58-13.14"/><path class="cls-1" d="M.38,482.38c0-.43,15-33.32,70.93-53"/><path class="cls-1" d="M351,482.38c-30.8-46.76-73.46-62.95-73.46-62.95-5.28-1.18-8.22-3.31-9.84-1.73a88.32,88.32,0,0,0-11.6,14c-4.09,6.4-7.91,17.31-10.36,27A88.93,88.93,0,0,0,243.32,479s-7.63-.15-7.36-1.71-7.77-8.38-7.77-8.38"/><path class="cls-1" d="M288.69,383.07s5.61,10,7,10.46-6.07,12.63-6.07,12.63h6.07a37.28,37.28,0,0,1-3,13.28,26.18,26.18,0,0,0-1.8,6.53"/><path class="cls-1" d="M372.84,479.78c.27-.82,2.18-15.81,3.54-18.27s3.82-6.5,4.09-9-3.27-8.6-3.82-10.45,3.83-14.29,3.83-14.29l8.17-28.73V380.53s-9.27-22.35-10.91-27.53a34.23,34.23,0,0,1-1.63-11.73c0-3.27-1.09-15.09-1.09-15.09"/><path class="cls-1" d="M348.25,425c-.29.37,13.89,26.27,23.71,28.73s0-7.36,0-7.36"/><path class="cls-2" d="M144.13,476.77s-5.92,14.28-4.21,17.55-5.36,3.43-4.56,9.53,19,15.68,50.25,16,37.73-11.68,38.41-12.36-2.78-10-3.51-12-5.39-35.4-5.39-35.4"/><path class="cls-2" d="M146.21,495.41c.14-.36,6.5,6.91,33.49,6.55"/><path class="cls-2" d="M210,473.42s-6.3,6-20.78,6.36"/><g id="VOTRE_PROJET" data-name="VOTRE PROJET" class="cls-3"><g class="cls-3"><path class="cls-4" d="M242.72,511.49l-3.14-9.29h2.68l1.88,6.34L246,502.2h2.63l-3.14,9.29Z"/><path class="cls-4" d="M253.39,511.72a4.83,4.83,0,0,1-2.45-.58,3.85,3.85,0,0,1-1.56-1.68,5.85,5.85,0,0,1-.53-2.58,5.09,5.09,0,0,1,1.22-3.61,4.41,4.41,0,0,1,3.38-1.3,4.73,4.73,0,0,1,2.45.59,3.82,3.82,0,0,1,1.56,1.67,5.85,5.85,0,0,1,.53,2.58,5.09,5.09,0,0,1-1.22,3.61A4.41,4.41,0,0,1,253.39,511.72Zm0-2.14a1.72,1.72,0,0,0,1.49-.69,3.41,3.41,0,0,0,.5-2c0-1.82-.66-2.73-2-2.73a1.71,1.71,0,0,0-1.49.68,4.43,4.43,0,0,0,0,4.09A1.69,1.69,0,0,0,253.41,509.58Z"/><path class="cls-4" d="M261.1,511.49v-7.17h-2.68V502.2h7.85v2.12h-2.68v7.17Z"/><path class="cls-4" d="M272.68,511.49l-1.52-3.2h-1.35v3.2h-2.38V502.2h3.66a4.38,4.38,0,0,1,2.77.75,2.65,2.65,0,0,1,.94,2.19,3.4,3.4,0,0,1-.35,1.57,2.59,2.59,0,0,1-1,1.07l1.9,3.71ZM271,506.35a1.62,1.62,0,0,0,1-.27,1,1,0,0,0,.32-.86,1,1,0,0,0-.35-.83,1.88,1.88,0,0,0-1.09-.26h-1.14v2.22Z"/><path class="cls-4" d="M276.28,511.49V502.2h6.64v2.06h-4.21v1.48h4v2.05h-4v1.64h4.49l-.21,2.06Z"/><path class="cls-4" d="M287.17,511.49V502.2h3.48a4.32,4.32,0,0,1,2.79.77,2.84,2.84,0,0,1,.92,2.33q0,3.17-3.69,3.17h-1.08v3Zm3.49-5a1.62,1.62,0,0,0,1.06-.28,1.09,1.09,0,0,0,.33-.89,1,1,0,0,0-.33-.87,1.73,1.73,0,0,0-1.07-.26h-1.06v2.3Z"/><path class="cls-4" d="M300.93,511.49l-1.52-3.2h-1.35v3.2h-2.38V502.2h3.66a4.38,4.38,0,0,1,2.77.75,2.65,2.65,0,0,1,.94,2.19,3.4,3.4,0,0,1-.35,1.57,2.59,2.59,0,0,1-1,1.07l1.9,3.71Zm-1.65-5.14a1.64,1.64,0,0,0,1-.27,1.08,1.08,0,0,0,.32-.86,1,1,0,0,0-.36-.83,1.85,1.85,0,0,0-1.08-.26h-1.14v2.22Z"/><path class="cls-4" d="M308.61,511.72a4.85,4.85,0,0,1-2.45-.58,3.77,3.77,0,0,1-1.55-1.68,5.71,5.71,0,0,1-.54-2.58,5,5,0,0,1,1.23-3.61,4.39,4.39,0,0,1,3.38-1.3,4.76,4.76,0,0,1,2.45.59,3.75,3.75,0,0,1,1.55,1.67,5.71,5.71,0,0,1,.53,2.58,5,5,0,0,1-1.22,3.61A4.39,4.39,0,0,1,308.61,511.72Zm0-2.14a1.73,1.73,0,0,0,1.49-.69,3.49,3.49,0,0,0,.5-2q0-2.73-2-2.73a1.72,1.72,0,0,0-1.49.68,4.43,4.43,0,0,0,0,4.09A1.72,1.72,0,0,0,308.64,509.58Z"/><path class="cls-4" d="M319.17,502.2h2.49v5.87a3.59,3.59,0,0,1-1,2.71,3.85,3.85,0,0,1-2.8.94,3.72,3.72,0,0,1-2.74-.94,3.84,3.84,0,0,1-1-2.75h2.5a2.12,2.12,0,0,0,.34,1.18,1.11,1.11,0,0,0,.9.37c.85,0,1.28-.5,1.28-1.49Z"/><path class="cls-4" d="M323.29,511.49V502.2h6.64v2.06h-4.21v1.48h3.95v2.05h-3.95v1.64h4.48l-.2,2.06Z"/><path class="cls-4" d="M333.64,511.49v-7.17H331V502.2h7.85v2.12h-2.68v7.17Z"/></g></g><g id="VOUS" class="cls-3"><g class="cls-3"><path class="cls-5" d="M48.78,133.72l-3.13-9.28h2.68l1.88,6.33,1.89-6.33h2.62l-3.13,9.28Z"/><path class="cls-5" d="M59.45,134a4.86,4.86,0,0,1-2.45-.59,3.75,3.75,0,0,1-1.55-1.67,5.71,5.71,0,0,1-.53-2.58,5,5,0,0,1,1.22-3.61,4.39,4.39,0,0,1,3.38-1.3,4.85,4.85,0,0,1,2.45.58,3.8,3.8,0,0,1,1.55,1.67,5.77,5.77,0,0,1,.54,2.58,5.06,5.06,0,0,1-1.23,3.62A4.43,4.43,0,0,1,59.45,134Zm0-2.15a1.73,1.73,0,0,0,1.49-.69,3.49,3.49,0,0,0,.5-2q0-2.73-2-2.73A1.73,1.73,0,0,0,58,127a4.41,4.41,0,0,0,0,4.08A1.72,1.72,0,0,0,59.48,131.81Z"/><path class="cls-5" d="M70.74,124.44h2.49v5.44c0,2.72-1.31,4.08-4,4.08s-3.9-1.36-3.9-4.08v-5.44h2.5V130a2.27,2.27,0,0,0,.34,1.4,1.28,1.28,0,0,0,1.09.44,1.31,1.31,0,0,0,1.09-.44,2.34,2.34,0,0,0,.34-1.4Z"/><path class="cls-5" d="M77.54,130a4.61,4.61,0,0,1-2.31-1,2.43,2.43,0,0,1-.72-1.86,2.56,2.56,0,0,1,1-2.16,4.4,4.4,0,0,1,2.76-.75,4.55,4.55,0,0,1,2.74.73,2.82,2.82,0,0,1,1.15,2.1l-2.42.25a1.44,1.44,0,0,0-.48-.85,1.66,1.66,0,0,0-1-.26,1.84,1.84,0,0,0-.93.2.68.68,0,0,0-.32.6.64.64,0,0,0,.24.52,1.91,1.91,0,0,0,.8.3l1.26.24a4.48,4.48,0,0,1,2.28,1,2.46,2.46,0,0,1,.73,1.88,2.65,2.65,0,0,1-1,2.25,4.68,4.68,0,0,1-2.9.79,4.55,4.55,0,0,1-2.92-.83,3.2,3.2,0,0,1-1.13-2.46h2.48a1.31,1.31,0,0,0,.49,1,1.87,1.87,0,0,0,1.17.32,1.79,1.79,0,0,0,1-.23.75.75,0,0,0,.34-.67.69.69,0,0,0-.26-.57,1.59,1.59,0,0,0-.77-.3Z"/></g></g><g id="nOUS" class="cls-3"><g class="cls-3"><path class="cls-5" d="M378.37,133.72,375,128.41v5.31h-2.37v-9.28h2.19l3.34,5.32v-5.32h2.36v9.28Z"/><path class="cls-5" d="M386.53,134a4.86,4.86,0,0,1-2.45-.59,3.8,3.8,0,0,1-1.55-1.67,5.71,5.71,0,0,1-.53-2.58,5,5,0,0,1,1.22-3.61,4.39,4.39,0,0,1,3.38-1.3,4.85,4.85,0,0,1,2.45.58,3.8,3.8,0,0,1,1.55,1.67,5.77,5.77,0,0,1,.54,2.58,5.06,5.06,0,0,1-1.23,3.62A4.43,4.43,0,0,1,386.53,134Zm0-2.15a1.73,1.73,0,0,0,1.49-.69,3.49,3.49,0,0,0,.5-2q0-2.73-2-2.73a1.73,1.73,0,0,0-1.49.69,4.41,4.41,0,0,0,0,4.08A1.72,1.72,0,0,0,386.56,131.81Z"/><path class="cls-5" d="M397.82,124.44h2.49v5.44c0,2.72-1.31,4.08-3.95,4.08s-3.9-1.36-3.9-4.08v-5.44H395V130a2.27,2.27,0,0,0,.34,1.4,1.57,1.57,0,0,0,2.18,0,2.27,2.27,0,0,0,.34-1.4Z"/><path class="cls-5" d="M404.62,130a4.61,4.61,0,0,1-2.31-1,2.43,2.43,0,0,1-.72-1.86,2.56,2.56,0,0,1,1-2.16,4.4,4.4,0,0,1,2.76-.75,4.55,4.55,0,0,1,2.74.73,2.82,2.82,0,0,1,1.15,2.1l-2.42.25a1.44,1.44,0,0,0-.48-.85,1.66,1.66,0,0,0-1-.26,1.84,1.84,0,0,0-.93.2.68.68,0,0,0-.32.6.63.63,0,0,0,.25.52,1.8,1.8,0,0,0,.79.3l1.26.24a4.48,4.48,0,0,1,2.28,1,2.46,2.46,0,0,1,.74,1.88,2.66,2.66,0,0,1-1,2.25,4.66,4.66,0,0,1-2.9.79,4.55,4.55,0,0,1-2.92-.83,3.23,3.23,0,0,1-1.13-2.46h2.48a1.31,1.31,0,0,0,.49,1,1.87,1.87,0,0,0,1.17.32,1.76,1.76,0,0,0,1-.23.75.75,0,0,0,.34-.67.71.71,0,0,0-.25-.57,1.67,1.67,0,0,0-.78-.3Z"/></g></g></g></g></svg>