<svg xmlns="http://www.w3.org/2000/svg" width="67.174" height="24.289" viewBox="0 0 67.174 24.289">
  <g id="logo" transform="translate(-447.144 -807.081)">
    <g id="Groupe_2" data-name="Groupe 2" transform="translate(474.151 811.759)">
      <g id="Groupe_1" data-name="Groupe 1" transform="translate(0)">
        <path id="Tracé_1" data-name="Tracé 1" d="M561.648,823.766a6.01,6.01,0,0,0-4.784,2.326,4.385,4.385,0,0,0-4.123-2.326,5.249,5.249,0,0,0-4.255,2.273v-1.956h-.777l-4.245,13.125v1.174h5.022v-7.77c0-1.56.845-2.379,2.035-2.379s1.955.819,1.955,2.379v7.77H557.5v-7.77c0-1.56.872-2.379,2.061-2.379s1.956.819,1.956,2.379v7.77h5.022V829C566.537,825.668,564.687,823.766,561.648,823.766Z" transform="translate(-543.463 -823.766)" fill="#f2eddf"/>
      </g>
      <path id="Tracé_2" data-name="Tracé 2" d="M635.385,838.93l-5.6-14.034h5.26l2.855,8.616,2.7-8.616h5.154l-7.261,19.294H633.4Z" transform="translate(-605.578 -824.579)" fill="#f2eddf"/>
    </g>
    <g id="Groupe_4" data-name="Groupe 4" transform="translate(447.144 807.081)">
      <path id="Tracé_3" data-name="Tracé 3" d="M452.166,824.63v1.745h-5.022V807.081h5.022v6.9a5.249,5.249,0,0,1,4.334-2.22c3.41,0,6.343,2.827,6.343,7.4v.053c0,4.651-2.933,7.479-6.316,7.479A5.37,5.37,0,0,1,452.166,824.63Zm5.736-5.391v-.053a2.935,2.935,0,1,0-5.842,0v.053a2.938,2.938,0,1,0,5.842,0Z" transform="translate(-447.144 -807.081)" fill="#f2eddf"/>
      <g id="Groupe_3" data-name="Groupe 3" transform="translate(17.28 4.678)">
        <path id="Tracé_4" data-name="Tracé 4" d="M513.61,832.62h4.108l2.476-7.655a7.252,7.252,0,0,0-4.205-1.2,7.172,7.172,0,0,0-7.216,7.479v.053a7.126,7.126,0,0,0,6.98,7.4l1.213-3.751c-.089.005-.172.026-.264.026A2.952,2.952,0,0,1,513.61,832.62Zm2.406-5.154c1.374,0,2.3,1,2.484,2.59H513.53C513.8,828.5,514.694,827.466,516.016,827.466Z" transform="translate(-508.773 -823.766)" fill="#f2eddf"/>
      </g>
    </g>
  </g>
</svg>
